<svg version="1.1" id="Layer_1" xmlns="http://www.w3.org/2000/svg" xmlns:xlink="http://www.w3.org/1999/xlink" x="0px" y="0px"
	 width="100%" viewBox="0 0 64 64" enable-background="new 0 0 64 64" xml:space="preserve">
<path fill="#FDFDFD" opacity="1.000000" stroke="none" 
	d="
M41.000072,65.000000 
	C27.333387,65.000000 14.166720,65.000000 1.000040,65.000000 
	C1.000027,43.666683 1.000027,22.333368 1.000013,1.000040 
	C22.333315,1.000027 43.666630,1.000027 64.999954,1.000013 
	C64.999969,22.333315 64.999969,43.666630 64.999985,64.999969 
	C57.166698,65.000000 49.333393,65.000000 41.000072,65.000000 
M24.875223,56.650906 
	C26.210176,57.677837 27.545130,58.704769 29.474667,60.189095 
	C33.586918,42.356701 37.319565,26.170425 41.054821,9.972823 
	C36.953850,8.797491 35.534275,9.995518 34.745792,13.659707 
	C31.715002,27.744287 28.281473,41.742203 24.875223,56.650906 
M55.418869,27.112480 
	C52.644974,25.389566 49.871078,23.666653 46.902271,21.822674 
	C42.396900,31.019117 52.509621,30.052372 54.940750,34.545399 
	C51.784843,36.481956 48.604355,38.433598 45.239487,40.498379 
	C45.704079,42.476784 46.129879,44.289989 46.710556,46.762718 
	C51.064625,44.016186 55.002991,41.900097 58.464676,39.177845 
	C59.975613,37.989647 60.985046,35.656357 61.388371,33.673481 
	C62.208576,29.641102 58.120834,29.333672 55.418869,27.112480 
M6.284765,38.942360 
	C10.323771,41.445683 14.362777,43.949005 18.388870,46.444321 
	C20.841574,42.289413 20.357985,39.567875 16.021536,37.837105 
	C13.998866,37.029816 12.224925,35.599335 10.541775,34.575169 
	C12.931718,29.961468 23.446682,31.198402 18.395830,21.918356 
	C14.469608,24.367428 10.650496,26.699402 6.883989,29.113453 
	C3.209424,31.468575 2.829128,34.554867 6.284765,38.942360 
z"/>
<path fill="#666565" opacity="1.000000" stroke="none" 
	d="
M24.936687,56.211674 
	C28.281473,41.742203 31.715002,27.744287 34.745792,13.659707 
	C35.534275,9.995518 36.953850,8.797491 41.054821,9.972823 
	C37.319565,26.170425 33.586918,42.356701 29.474667,60.189095 
	C27.545130,58.704769 26.210176,57.677837 24.936687,56.211674 
z"/>
<path fill="#666565" opacity="1.000000" stroke="none" 
	d="
M55.721992,27.315344 
	C58.120834,29.333672 62.208576,29.641102 61.388371,33.673481 
	C60.985046,35.656357 59.975613,37.989647 58.464676,39.177845 
	C55.002991,41.900097 51.064625,44.016186 46.710556,46.762718 
	C46.129879,44.289989 45.704079,42.476784 45.239487,40.498379 
	C48.604355,38.433598 51.784843,36.481956 54.940750,34.545399 
	C52.509621,30.052372 42.396900,31.019117 46.902271,21.822674 
	C49.871078,23.666653 52.644974,25.389566 55.721992,27.315344 
z"/>
<path fill="#666565" opacity="1.000000" stroke="none" 
	d="
M5.956703,38.737091 
	C2.829128,34.554867 3.209424,31.468575 6.883989,29.113453 
	C10.650496,26.699402 14.469608,24.367428 18.395830,21.918356 
	C23.446682,31.198402 12.931718,29.961468 10.541775,34.575169 
	C12.224925,35.599335 13.998866,37.029816 16.021536,37.837105 
	C20.357985,39.567875 20.841574,42.289413 18.388870,46.444321 
	C14.362777,43.949005 10.323771,41.445683 5.956703,38.737091 
z"/>
</svg>